<?xml version="1.0" encoding="utf-8"?>
<!-- Generator: Adobe Illustrator 19.2.0, SVG Export Plug-In . SVG Version: 6.00 Build 0)  -->
<!DOCTYPE svg PUBLIC "-//W3C//DTD SVG 1.1//EN" "http://www.w3.org/Graphics/SVG/1.1/DTD/svg11.dtd">
<svg version="1.1" id="Layer_1" xmlns="http://www.w3.org/2000/svg" xmlns:xlink="http://www.w3.org/1999/xlink" x="0px" y="0px"
	 viewBox="0 0 40 40" style="enable-background:new 0 0 40 40;" xml:space="preserve">
<style type="text/css">
	.st0{fill:#ffffff;}
</style>
<g>
	<path class="st0" d="M19.9,31.3c-0.4,0-0.8,0-1.1,0c-0.3,0-0.7,0-1,0c-3.5,0-6-1-8-3.4C9,27,8.2,25,7.7,22.5
		c-0.5-2.2-0.8-4.4-0.7-5.6c0.1-1,0.7-3.3,5-4.4c6.2-1.4,15-0.4,15.1-0.4l0,0c2.8,0.3,4.6,1.2,5.5,2.5c0.7,1,0.5,1.9,0.5,2.1
		c0,0.5-0.5,6.8-2.8,10.8C28.2,31,23.6,31.3,19.9,31.3z M20.3,12.4c-2.6,0-5.6,0.2-8.2,0.8c-3.9,1-4.4,3.2-4.5,3.8
		c-0.2,2.3,1.1,8.6,2.7,10.5c1.9,2.2,4.1,3.2,7.5,3.2c0.3,0,0.7,0,1,0c3.7,0,8.8,0.1,10.9-3.5c2.3-4,2.7-10.5,2.7-10.5l0-0.1
		c0,0,0.2-0.8-0.4-1.7c-0.8-1.1-2.5-1.9-5-2.2C26.9,12.7,23.9,12.4,20.3,12.4z"/>
	<g>
		<path class="st0" d="M16.5,16.4c-0.1,0-0.2,0-0.3-0.1c-0.1-0.1-0.1-0.3,0.1-0.4c0.1,0,1.3-0.8,3.6-1.1c2.4-0.2,3.9,1,4,1.1
			c0.1,0.1,0.2,0.3,0,0.5c-0.1,0.1-0.3,0.2-0.5,0c0,0-1.4-1.1-3.5-0.9c-2.2,0.2-3.3,0.9-3.3,1C16.7,16.4,16.6,16.4,16.5,16.4z"/>
		<path class="st0" d="M25.5,20c-0.1,0-0.2-0.1-0.3-0.2l0,0c0,0-1.9-2.9-4.8-2.9c0,0,0,0-0.1,0c-3,0-5.3,2.7-5.4,2.7
			c-0.1,0.1-0.3,0.2-0.5,0c-0.1-0.1-0.2-0.3,0-0.5c0.1-0.1,2.5-2.9,5.9-2.9c3.4,0,5.3,3,5.4,3.2c0.1,0.2,0.1,0.4-0.1,0.4
			C25.6,20,25.5,20,25.5,20z"/>
		<path class="st0" d="M21.8,28.1C21.8,28.1,21.8,28.1,21.8,28.1c-1.2-0.2-2.3-1.1-3-2.3c-0.7-1-0.9-2.1-0.8-2.9
			c0.2-1,1.1-1.8,2-1.9c0.8,0,1.4,0.4,1.7,1.3c0.8,2,1.3,2.1,1.9,2c0.3,0,0.5-0.2,0.7-0.5c0.3-0.6,0.3-1.5-0.1-2.3
			c-0.4-0.8-1.3-2-2.7-2.5c-1.2-0.4-2.5-0.3-3.8,0.4c-3.3,1.7-1.8,6.3-1.8,6.3c0.1,0.2,0,0.4-0.2,0.4c-0.2,0.1-0.4,0-0.4-0.2
			c0-0.1-1.7-5.1,2.1-7.1c1.5-0.8,3-0.9,4.3-0.5c1.6,0.6,2.7,1.9,3.1,2.8c0.5,1.1,0.5,2.1,0.1,2.9c-0.3,0.5-0.7,0.8-1.2,0.9
			c-1.4,0.2-2-0.7-2.7-2.4c-0.2-0.6-0.6-0.9-1.1-0.9c-0.6,0-1.2,0.6-1.4,1.4c-0.2,0.6,0.1,1.6,0.7,2.4c0.7,1.1,1.6,1.8,2.6,2
			c0.2,0,0.3,0.2,0.3,0.4C22.1,28,22,28.1,21.8,28.1z"/>
		<path class="st0" d="M18.7,27.8c-0.1,0-0.2,0-0.2-0.1c-1.5-1.4-2.3-3.8-1.8-5.6c0.3-1.3,1.3-2.2,2.6-2.5c1.1-0.2,2-0.1,2.8,0.4
			c1.3,1,1.5,2.8,1.5,2.9c0,0.2-0.1,0.3-0.3,0.3c-0.2,0-0.3-0.1-0.3-0.3l0,0c0,0-0.1-1.6-1.2-2.4c-0.6-0.4-1.3-0.5-2.3-0.3
			c-1.4,0.3-1.9,1.3-2.1,2c-0.4,1.6,0.3,3.7,1.6,4.9c0.1,0.1,0.1,0.3,0,0.5C18.9,27.8,18.8,27.8,18.7,27.8z"/>
		<path class="st0" d="M23.2,26.7c-0.5,0-1.1-0.1-1.8-0.5c-0.9-0.6-1.5-1.6-1.8-3.1c0-0.2,0.1-0.3,0.3-0.4c0.2,0,0.3,0.1,0.4,0.3
			c0.2,1.3,0.7,2.2,1.5,2.6c0.9,0.6,1.9,0.4,1.9,0.4c0.2,0,0.3,0.1,0.4,0.2c0,0.2-0.1,0.3-0.2,0.4C23.8,26.6,23.6,26.7,23.2,26.7z"
			/>
	</g>
</g>
</svg>
