<?xml version="1.0" encoding="utf-8"?>
<!-- Generator: Adobe Illustrator 19.2.0, SVG Export Plug-In . SVG Version: 6.00 Build 0)  -->
<!DOCTYPE svg PUBLIC "-//W3C//DTD SVG 1.1//EN" "http://www.w3.org/Graphics/SVG/1.1/DTD/svg11.dtd">
<svg version="1.1" id="Layer_1" xmlns="http://www.w3.org/2000/svg" xmlns:xlink="http://www.w3.org/1999/xlink" x="0px" y="0px"
	 viewBox="0 0 40 40" style="enable-background:new 0 0 40 40;" xml:space="preserve">
<style type="text/css">
	.st0{clip-path:url(#SVGID_2_);fill:#ffffff;}
	.st1{fill:#ffffff;}
	.st2{clip-path:url(#SVGID_4_);fill:#ffffff;}
	.st3{clip-path:url(#SVGID_6_);fill:#ffffff;}
</style>
<g>
	<path class="st1" d="M21.1,30.5c-0.4,0-0.8,0-1.2,0c-0.4,0-0.7,0-1,0c-3.6,0-6.2-1.1-8.2-3.5c-1.8-2.1-3.1-8.7-2.9-11.2
		c0.3-2.9,3.7-4.1,5.1-4.5c6.4-1.5,15.4-0.5,15.5-0.4l0,0c2.8,0.3,4.7,1.2,5.6,2.5c0.8,1.1,0.5,2.2,0.5,2.2c0,0.2-0.4,6.8-2.9,11
		C29.5,30.2,24.9,30.5,21.1,30.5z M21.4,11.1c-2.7,0-5.8,0.2-8.4,0.8c-1,0.3-4.4,1.4-4.6,3.9c-0.2,2.3,1.2,8.9,2.7,10.8
		c1.9,2.3,4.2,3.3,7.7,3.3c0.3,0,0.7,0,1,0c3.8,0,9.1,0.1,11.2-3.6c2.4-4.1,2.8-10.7,2.8-10.8c0-0.1,0.2-0.9-0.4-1.8
		c-0.8-1.1-2.6-1.9-5.2-2.2l0,0C28.2,11.4,25.2,11.1,21.4,11.1z"/>
	<g>
		<path class="st1" d="M21.2,24.6c-2.5,0-4.6-2-4.6-4.6s2-4.6,4.6-4.6s4.6,2,4.6,4.6S23.7,24.6,21.2,24.6z M21.2,16.2
			c-2.1,0-3.9,1.7-3.9,3.9s1.7,3.9,3.9,3.9s3.9-1.7,3.9-3.9S23.3,16.2,21.2,16.2z"/>
		<g>
			<path class="st1" d="M18.6,20.1h-4.3c-0.2,0-0.3-0.1-0.3-0.3s0.1-0.3,0.3-0.3h4.3c0.2,0,0.3,0.1,0.3,0.3S18.8,20.1,18.6,20.1z"/>
			<path class="st1" d="M27.8,20.1h-4.3c-0.2,0-0.3-0.1-0.3-0.3s0.1-0.3,0.3-0.3h4.3c0.2,0,0.3,0.1,0.3,0.3S28,20.1,27.8,20.1z"/>
		</g>
		<g>
			<path class="st1" d="M21.1,17.6c-0.2,0-0.3-0.1-0.3-0.3V13c0-0.2,0.1-0.3,0.3-0.3s0.3,0.1,0.3,0.3v4.3
				C21.5,17.5,21.3,17.6,21.1,17.6z"/>
			<path class="st1" d="M21.1,26.8c-0.2,0-0.3-0.1-0.3-0.3v-4.3c0-0.2,0.1-0.3,0.3-0.3s0.3,0.1,0.3,0.3v4.3
				C21.5,26.7,21.3,26.8,21.1,26.8z"/>
		</g>
	</g>
</g>
</svg>
