<?xml version="1.0" encoding="utf-8"?>
<!-- Generator: Adobe Illustrator 19.2.0, SVG Export Plug-In . SVG Version: 6.00 Build 0)  -->
<!DOCTYPE svg PUBLIC "-//W3C//DTD SVG 1.1//EN" "http://www.w3.org/Graphics/SVG/1.1/DTD/svg11.dtd">
<svg version="1.1" id="Layer_1" xmlns="http://www.w3.org/2000/svg" xmlns:xlink="http://www.w3.org/1999/xlink" x="0px" y="0px"
	 viewBox="0 0 40 40" style="enable-background:new 0 0 40 40;" xml:space="preserve">
<style type="text/css">
	.st0{fill:#ffffff;}
	.st1{clip-path:url(#SVGID_2_);fill:#ffffff;}
	.st2{clip-path:url(#SVGID_4_);fill:#ffffff;}
	.st3{clip-path:url(#SVGID_6_);fill:#ffffff;}
	.st4{clip-path:url(#SVGID_8_);fill:#ffffff;}
	.st5{clip-path:url(#SVGID_10_);fill:#FFFFFF;}
	.st6{clip-path:url(#SVGID_10_);fill:#ffffff;}
</style>
<g>
	<path class="st0" d="M20.9,24.6c-5.1,0-8.1-4.2-8.2-4.3l-0.1-0.2l0.1-0.2c0.1-0.2,3.2-4.3,8.2-4.3s8.1,4.2,8.2,4.3l0.1,0.2
		l-0.1,0.2C29,20.5,25.9,24.6,20.9,24.6z M13.4,20.1c0.7,0.8,3.4,3.8,7.5,3.8c4.1,0,6.8-3,7.5-3.8c-0.7-0.8-3.4-3.8-7.5-3.8
		C16.8,16.2,14.1,19.2,13.4,20.1z"/>
	<path class="st0" d="M20.9,24.2c-2.3,0-4.1-1.8-4.1-4.1s1.8-4.1,4.1-4.1s4.1,1.8,4.1,4.1S23.1,24.2,20.9,24.2z M20.9,16.7
		c-1.9,0-3.4,1.5-3.4,3.4s1.5,3.4,3.4,3.4s3.4-1.5,3.4-3.4S22.7,16.7,20.9,16.7z"/>
	<path class="st0" d="M22,20.1c0,0.6-0.5,1.1-1.1,1.1s-1.1-0.5-1.1-1.1c0-0.6,0.5-1.1,1.1-1.1S22,19.4,22,20.1"/>
	<path class="st0" d="M21,30.9c-0.5,0-1.3-0.2-3.1-1.7c-1-0.9-2.3-2.1-3.6-3.4c-1.4-1.5-4.7-5.1-5-6.8c-0.2-0.6-0.3-1.2-0.3-1.8
		c0-3.6,2.9-6.4,6.4-6.4c1.6,0,3.2,0.6,4.4,1.7c0.4,0.3,0.7,0.7,1,1.1c0.3-0.4,0.6-0.8,1-1.1l0,0c1.2-1.1,2.8-1.7,4.4-1.7
		c3.6,0,6.4,2.9,6.4,6.4c0,0.6-0.1,1.2-0.3,1.8c-0.1,0.3-0.2,0.6-0.4,0.9c-0.2,0.4-0.5,0.9-0.9,1.4C30,23,28,25.3,26,27.3
		C22.4,30.9,21.4,30.9,21,30.9z M15.5,11.5c-3.2,0-5.7,2.6-5.7,5.7c0,0.6,0.1,1.1,0.2,1.7c0.2,1.3,2.6,4.1,4.8,6.4
		c1.3,1.3,2.5,2.5,3.5,3.4c1.8,1.5,2.4,1.5,2.6,1.5c0.8,0,2.3-1.2,4.6-3.4c1.9-1.9,3.9-4.2,5.1-5.9c0.4-0.5,0.6-0.9,0.8-1.3
		c0.1-0.3,0.2-0.6,0.3-0.9c0.2-0.5,0.2-1.1,0.2-1.6c0-3.2-2.6-5.7-5.7-5.7c-1.5,0-2.8,0.5-3.9,1.5l0,0c-0.5,0.4-0.9,0.9-1.2,1.5
		l-0.3,0.6l-0.3-0.6c-0.3-0.6-0.7-1.1-1.2-1.5C18.4,12,17,11.5,15.5,11.5z M22.1,12.7L22.1,12.7L22.1,12.7z"/>
</g>
</svg>
