<?xml version="1.0" encoding="utf-8"?>
<!-- Generator: Adobe Illustrator 19.2.0, SVG Export Plug-In . SVG Version: 6.00 Build 0)  -->
<!DOCTYPE svg PUBLIC "-//W3C//DTD SVG 1.1//EN" "http://www.w3.org/Graphics/SVG/1.1/DTD/svg11.dtd">
<svg version="1.1" id="Layer_1" xmlns="http://www.w3.org/2000/svg" xmlns:xlink="http://www.w3.org/1999/xlink" x="0px" y="0px"
	 viewBox="0 0 40 40" style="enable-background:new 0 0 40 40;" xml:space="preserve">
<style type="text/css">
	.st0{fill:#ffffff;}
	.st1{clip-path:url(#SVGID_2_);fill:#ffffff;}
	.st2{clip-path:url(#SVGID_4_);fill:#ffffff;}
	.st3{clip-path:url(#SVGID_6_);fill:#ffffff;}
	.st4{clip-path:url(#SVGID_8_);fill:#ffffff;}
	.st5{clip-path:url(#SVGID_10_);fill:#FFFFFF;}
	.st6{clip-path:url(#SVGID_10_);fill:#ffffff;}
</style>
<g>
	<g>
		<g>
			<path class="st0" d="M18.4,21.2c-0.7,0-1.1-0.5-1.1-1.2v-1.3c0-0.1,0.1-0.2,0.2-0.2c0.1,0,0.2,0.1,0.2,0.2V20
				c0,0.5,0.2,0.7,0.7,0.7c0.4,0,0.7-0.3,0.7-0.7v-1.3c0-0.1,0.1-0.2,0.2-0.2c0.1,0,0.2,0.1,0.2,0.2V20C19.5,20.7,19,21.2,18.4,21.2
				"/>
			<path class="st0" d="M20.9,21.2c-0.1,0-0.2-0.1-0.2-0.1l-1-2.2c-0.1-0.1,0-0.3,0.1-0.3c0.1-0.1,0.3,0,0.3,0.1l0.8,1.8l0.8-1.8
				c0.1-0.1,0.2-0.2,0.3-0.1c0.1,0.1,0.2,0.2,0.1,0.3l-1,2.2C21.1,21.1,21,21.2,20.9,21.2"/>
			<path class="st0" d="M19.7,32c-0.2,0-0.4-0.1-0.6-0.2c-1.9-1-8-4.9-8-11.3V11l7.8-1.9C19.4,9,20,9,20.6,9.2l7.8,1.9v9.5
				c0,6.4-6.2,10.2-8,11.3C20.1,32,19.9,32,19.7,32 M11.6,11.5v9.1c0,6.1,5.9,9.8,7.8,10.8c0.2,0.1,0.5,0.1,0.7,0
				c1.8-1,7.8-4.7,7.8-10.8v-9.1l-7.4-1.8c-0.5-0.1-1-0.1-1.4,0L11.6,11.5z"/>
			<path class="st0" d="M19.7,23.6c-2.2,0-4-1.8-4-4c0-2.2,1.8-4,4-4c2.2,0,4,1.8,4,4C23.7,21.8,21.9,23.6,19.7,23.6 M19.7,16.2
				c-1.9,0-3.5,1.5-3.5,3.5c0,1.9,1.5,3.5,3.5,3.5c1.9,0,3.5-1.5,3.5-3.5C23.2,17.8,21.6,16.2,19.7,16.2"/>
			<path class="st0" d="M26.7,19.7H25c-0.1,0-0.3-0.1-0.3-0.3c0-0.1,0.1-0.3,0.3-0.3h1.8c0.1,0,0.3,0.1,0.3,0.3
				C27,19.6,26.9,19.7,26.7,19.7"/>
			<path class="st0" d="M24.3,17.1c-0.1,0-0.2,0-0.2-0.1c-0.1-0.1,0-0.3,0.1-0.4l1.5-0.8c0.1-0.1,0.3,0,0.4,0.1
				c0.1,0.1,0,0.3-0.1,0.4L24.4,17C24.4,17.1,24.3,17.1,24.3,17.1"/>
			<path class="st0" d="M22.4,15.2c0,0-0.1,0-0.1,0c-0.1-0.1-0.2-0.2-0.1-0.4l0.9-1.5c0.1-0.1,0.2-0.2,0.4-0.1
				c0.1,0.1,0.2,0.2,0.1,0.4L22.6,15C22.5,15.1,22.5,15.2,22.4,15.2"/>
			<path class="st0" d="M14.5,19.7h-1.8c-0.1,0-0.3-0.1-0.3-0.3c0-0.1,0.1-0.3,0.3-0.3h1.8c0.1,0,0.3,0.1,0.3,0.3
				C14.7,19.6,14.6,19.7,14.5,19.7"/>
			<path class="st0" d="M15.2,17.1c0,0-0.1,0-0.1,0l-1.5-0.8c-0.1-0.1-0.2-0.2-0.1-0.4c0.1-0.1,0.2-0.2,0.4-0.1l1.5,0.8
				c0.1,0.1,0.2,0.2,0.1,0.4C15.3,17,15.3,17.1,15.2,17.1"/>
			<path class="st0" d="M17.1,15.2c-0.1,0-0.2,0-0.2-0.1l-0.9-1.5c-0.1-0.1,0-0.3,0.1-0.4c0.1-0.1,0.3,0,0.4,0.1l0.9,1.5
				c0.1,0.1,0,0.3-0.1,0.4C17.2,15.1,17.1,15.2,17.1,15.2"/>
			<path class="st0" d="M19.7,14.4c-0.1,0-0.3-0.1-0.3-0.3l0-1.8c0-0.1,0.1-0.3,0.3-0.3h0c0.1,0,0.3,0.1,0.3,0.3l0,1.8
				C20,14.3,19.9,14.4,19.7,14.4L19.7,14.4z"/>
			<path class="st0" d="M25.8,23.2c0,0-0.1,0-0.1,0l-1.5-0.8c-0.1-0.1-0.2-0.2-0.1-0.4c0.1-0.1,0.2-0.2,0.4-0.1l1.5,0.8
				c0.1,0.1,0.2,0.2,0.1,0.4C26,23.1,25.9,23.2,25.8,23.2"/>
			<path class="st0" d="M23.3,25.7c-0.1,0-0.2,0-0.2-0.1l-0.9-1.5c-0.1-0.1,0-0.3,0.1-0.4c0.1-0.1,0.3,0,0.4,0.1l0.9,1.5
				c0.1,0.1,0,0.3-0.1,0.4C23.4,25.7,23.3,25.7,23.3,25.7"/>
			<path class="st0" d="M13.6,23.2c-0.1,0-0.2,0-0.2-0.1c-0.1-0.1,0-0.3,0.1-0.4l1.5-0.8c0.1-0.1,0.3,0,0.4,0.1
				c0.1,0.1,0,0.3-0.1,0.4l-1.5,0.8C13.7,23.2,13.7,23.2,13.6,23.2"/>
			<path class="st0" d="M16.2,25.7c0,0-0.1,0-0.1,0c-0.1-0.1-0.2-0.2-0.1-0.4l0.9-1.5c0.1-0.1,0.2-0.2,0.4-0.1
				c0.1,0.1,0.2,0.2,0.1,0.4l-0.9,1.5C16.3,25.7,16.3,25.7,16.2,25.7"/>
			<path class="st0" d="M19.7,26.7L19.7,26.7c-0.1,0-0.3-0.1-0.3-0.3l0-1.8c0-0.1,0.1-0.3,0.3-0.3h0c0.1,0,0.3,0.1,0.3,0.3l0,1.8
				C20,26.6,19.9,26.7,19.7,26.7"/>
		</g>
	</g>
</g>
</svg>
