<?xml version="1.0" encoding="utf-8"?>
<!-- Generator: Adobe Illustrator 19.2.0, SVG Export Plug-In . SVG Version: 6.00 Build 0)  -->
<!DOCTYPE svg PUBLIC "-//W3C//DTD SVG 1.1//EN" "http://www.w3.org/Graphics/SVG/1.1/DTD/svg11.dtd">
<svg version="1.1" id="Layer_1" xmlns="http://www.w3.org/2000/svg" xmlns:xlink="http://www.w3.org/1999/xlink" x="0px" y="0px"
	 viewBox="0 0 40 40" style="enable-background:new 0 0 40 40;" xml:space="preserve">
<style type="text/css">
	.st0{fill:#ffffff;}
	.st1{clip-path:url(#SVGID_2_);fill:#ffffff;}
	.st2{clip-path:url(#SVGID_4_);fill:#ffffff;}
	.st3{clip-path:url(#SVGID_6_);fill:#ffffff;}
	.st4{clip-path:url(#SVGID_8_);fill:#ffffff;}
	.st5{clip-path:url(#SVGID_10_);fill:#FFFFFF;}
	.st6{clip-path:url(#SVGID_10_);fill:#ffffff;}
</style>
<g>
	<path class="st0" d="M10.1,25.6c-2.4,0-4.4-2-4.4-4.4c0-2.4,2-4.4,4.4-4.4c2.4,0,4.4,2,4.4,4.4C14.5,23.6,12.5,25.6,10.1,25.6
		 M10.1,17.4c-2.1,0-3.8,1.7-3.8,3.8c0,2.1,1.7,3.8,3.8,3.8c2.1,0,3.8-1.7,3.8-3.8C13.9,19.1,12.2,17.4,10.1,17.4"/>
	<path class="st0" d="M17.9,21.3h-1.9c-0.2,0-0.3-0.1-0.3-0.3c0-0.2,0.1-0.3,0.3-0.3h1.9c0.2,0,0.3,0.1,0.3,0.3
		C18.2,21.1,18,21.3,17.9,21.3"/>
	<path class="st0" d="M15.1,18.3c-0.1,0-0.2-0.1-0.2-0.1c-0.1-0.1,0-0.3,0.1-0.4l1.7-0.9c0.1-0.1,0.3,0,0.4,0.1
		c0.1,0.1,0,0.3-0.1,0.4l-1.7,0.9C15.2,18.3,15.2,18.3,15.1,18.3"/>
	<path class="st0" d="M13,16.2c-0.1,0-0.1,0-0.1,0c-0.1-0.1-0.2-0.3-0.1-0.4l1-1.7c0.1-0.1,0.3-0.2,0.4-0.1c0.1,0.1,0.2,0.3,0.1,0.4
		l-1,1.7C13.2,16.2,13.1,16.2,13,16.2"/>
	<path class="st0" d="M4.2,21.3H2.3C2.1,21.3,2,21.1,2,21c0-0.2,0.1-0.3,0.3-0.3h1.9c0.2,0,0.3,0.1,0.3,0.3
		C4.5,21.1,4.4,21.3,4.2,21.3"/>
	<path class="st0" d="M5,18.3c0,0-0.1,0-0.1,0l-1.7-0.9C3,17.3,3,17.1,3.1,17c0.1-0.1,0.2-0.2,0.4-0.1l1.7,0.9
		c0.1,0.1,0.2,0.2,0.1,0.4C5.2,18.3,5.1,18.3,5,18.3"/>
	<path class="st0" d="M7.2,16.2c-0.1,0-0.2,0-0.2-0.1l-1-1.7c-0.1-0.1,0-0.3,0.1-0.4c0.1-0.1,0.3,0,0.4,0.1l1,1.7
		c0.1,0.1,0,0.3-0.1,0.4C7.3,16.2,7.2,16.2,7.2,16.2"/>
	<path class="st0" d="M10.1,15.4c-0.2,0-0.3-0.1-0.3-0.3l0-1.9c0-0.2,0.1-0.3,0.3-0.3c0.2,0,0.3,0.1,0.3,0.3l0,1.9
		C10.4,15.3,10.3,15.4,10.1,15.4L10.1,15.4z"/>
	<path class="st0" d="M16.9,25.1c0,0-0.1,0-0.1,0L15,24.1c-0.1-0.1-0.2-0.2-0.1-0.4c0.1-0.1,0.2-0.2,0.4-0.1l1.7,0.9
		c0.1,0.1,0.2,0.2,0.1,0.4C17,25.1,17,25.1,16.9,25.1"/>
	<path class="st0" d="M14,28c-0.1,0-0.2,0-0.2-0.1l-1-1.7c-0.1-0.1,0-0.3,0.1-0.4c0.1-0.1,0.3,0,0.4,0.1l1,1.7
		c0.1,0.1,0,0.3-0.1,0.4C14.1,27.9,14.1,28,14,28"/>
	<path class="st0" d="M3.3,25.1c-0.1,0-0.2-0.1-0.2-0.1c-0.1-0.1,0-0.3,0.1-0.4l1.7-0.9c0.1-0.1,0.3,0,0.4,0.1
		c0.1,0.1,0,0.3-0.1,0.4l-1.7,0.9C3.4,25.1,3.4,25.1,3.3,25.1"/>
	<path class="st0" d="M6.1,28c-0.1,0-0.1,0-0.1,0c-0.1-0.1-0.2-0.3-0.1-0.4l1-1.7c0.1-0.1,0.3-0.2,0.4-0.1c0.1,0.1,0.2,0.3,0.1,0.4
		l-1,1.7C6.3,27.9,6.2,28,6.1,28"/>
	<path class="st0" d="M10.1,29L10.1,29c-0.2,0-0.3-0.1-0.3-0.3l0-1.9c0-0.2,0.1-0.3,0.3-0.3c0.2,0,0.3,0.1,0.3,0.3l0,1.9
		C10.4,28.9,10.2,29,10.1,29"/>
	<path class="st0" d="M30.2,24.8c-0.1,0-0.2-0.1-0.2-0.2c0-1,0.4-1.6,0.8-2.1c0.3-0.5,0.6-0.9,0.6-1.5c0-0.7-0.6-2.1-2.2-2.1
		c-1.7,0-2.2,1.5-2.2,2.1c0,0.6,0.3,1.1,0.6,1.5c0.4,0.5,0.8,1.1,0.8,2.1c0,0.1-0.1,0.2-0.2,0.2c-0.1,0-0.2-0.1-0.2-0.2
		c0-0.9-0.3-1.3-0.7-1.9c-0.3-0.5-0.7-1-0.7-1.8c0-1,0.9-2.6,2.7-2.6c1.8,0,2.7,1.5,2.7,2.6c0,0.8-0.3,1.3-0.7,1.8
		c-0.4,0.5-0.7,1-0.7,1.9C30.4,24.7,30.3,24.8,30.2,24.8"/>
	<path class="st0" d="M30.2,24.8c-0.1,0-0.2-0.1-0.2-0.2c0-1,0.4-1.6,0.8-2.1c0.3-0.5,0.6-0.9,0.6-1.5c0-0.7-0.6-2.1-2.2-2.1
		c-1.7,0-2.2,1.4-2.2,2.1c0,0.6,0.3,1.1,0.6,1.5c0.4,0.5,0.8,1.1,0.8,2.1c0,0.1-0.1,0.2-0.2,0.2c-0.1,0-0.2-0.1-0.2-0.2
		c0-0.8-0.3-1.3-0.7-1.9c-0.3-0.5-0.7-1-0.7-1.8c0-1,0.9-2.6,2.7-2.6c1.9,0,2.7,1.6,2.7,2.6c0,0.8-0.4,1.3-0.7,1.8
		c-0.4,0.5-0.7,1-0.7,1.9C30.5,24.7,30.4,24.8,30.2,24.8 M29.1,18.7c1.7,0,2.3,1.5,2.3,2.1c0,0.7-0.3,1.1-0.6,1.6
		C30.4,23,30,23.6,30,24.6c0,0.1,0.1,0.2,0.2,0.2s0.2-0.1,0.2-0.2c0-0.9,0.3-1.4,0.7-1.9c0.3-0.5,0.7-1,0.7-1.8c0-1-0.9-2.6-2.7-2.6
		c-1.8,0-2.7,1.5-2.7,2.6c0,0.8,0.3,1.3,0.7,1.8c0.4,0.5,0.7,1,0.7,1.9c0,0.1,0.1,0.2,0.2,0.2s0.2-0.1,0.2-0.2c0-1-0.4-1.6-0.8-2.1
		c-0.3-0.5-0.6-0.9-0.6-1.6C26.9,20.2,27.4,18.7,29.1,18.7"/>
	<path class="st0" d="M30.3,25.3H28c-0.1,0-0.2-0.1-0.2-0.2c0-0.1,0.1-0.2,0.2-0.2h2.3c0.1,0,0.2,0.1,0.2,0.2
		C30.5,25.2,30.4,25.3,30.3,25.3"/>
	<path class="st0" d="M30.3,25.3H28c-0.1,0-0.2-0.1-0.2-0.2c0-0.1,0.1-0.2,0.2-0.2h2.3c0.1,0,0.2,0.1,0.2,0.2
		C30.5,25.2,30.4,25.3,30.3,25.3 M28,24.9c-0.1,0-0.2,0.1-0.2,0.2c0,0.1,0.1,0.2,0.2,0.2h2.3c0.1,0,0.2-0.1,0.2-0.2
		c0-0.1-0.1-0.2-0.2-0.2H28z"/>
	<path class="st0" d="M30,26.3C30,26.3,30,26.3,30,26.3l-1.8-0.5c-0.1,0-0.2-0.2-0.2-0.3c0-0.1,0.2-0.2,0.3-0.2l1.7,0.4
		c0.1,0,0.2,0.2,0.2,0.3C30.2,26.2,30.1,26.3,30,26.3"/>
	<path class="st0" d="M30,26.3C30,26.3,30,26.3,30,26.3l-1.8-0.5c-0.1,0-0.2-0.2-0.2-0.3c0-0.1,0.2-0.2,0.3-0.2l1.7,0.4
		c0.1,0,0.2,0.2,0.2,0.3C30.2,26.2,30.1,26.3,30,26.3 M28.3,25.4c-0.1,0-0.2,0.1-0.2,0.2c0,0.1,0,0.2,0.2,0.3l1.7,0.4
		c0.1,0,0.2,0,0.3-0.2c0-0.1,0-0.2-0.2-0.3L28.3,25.4C28.3,25.4,28.3,25.4,28.3,25.4"/>
	<path class="st0" d="M29.7,26.8C29.7,26.8,29.7,26.8,29.7,26.8l-1.4-0.3c-0.1,0-0.2-0.2-0.2-0.3c0-0.1,0.2-0.2,0.3-0.2l1.3,0.3
		c0.1,0,0.2,0.2,0.2,0.3C29.9,26.7,29.8,26.8,29.7,26.8"/>
	<path class="st0" d="M29.7,26.8C29.7,26.8,29.7,26.8,29.7,26.8l-1.4-0.3c-0.1,0-0.2-0.2-0.2-0.3c0-0.1,0.1-0.1,0.1-0.2
		c0.1,0,0.1,0,0.2,0l1.3,0.3c0.1,0,0.2,0.2,0.2,0.3C30,26.8,29.9,26.8,29.7,26.8 M28.4,26c0,0-0.1,0-0.1,0c0,0-0.1,0.1-0.1,0.1
		c0,0.1,0,0.2,0.2,0.3l1.3,0.3c0,0,0,0,0.1,0c0.1,0,0.2-0.1,0.2-0.2c0-0.1,0-0.1,0-0.2c0,0-0.1-0.1-0.1-0.1L28.4,26
		C28.4,26,28.4,26,28.4,26"/>
	<path class="st0" d="M29.6,27.4h-1c-0.1,0-0.2-0.1-0.2-0.2s0.1-0.2,0.2-0.2h1c0.1,0,0.2,0.1,0.2,0.2S29.8,27.4,29.6,27.4"/>
	<path class="st0" d="M29.6,27.4h-1c-0.1,0-0.2-0.1-0.2-0.2c0-0.1,0.1-0.2,0.2-0.2h1c0.1,0,0.2,0.1,0.2,0.2
		C29.9,27.3,29.8,27.4,29.6,27.4 M28.6,26.9c-0.1,0-0.2,0.1-0.2,0.2c0,0.1,0.1,0.2,0.2,0.2h1c0.1,0,0.2-0.1,0.2-0.2
		c0-0.1-0.1-0.2-0.2-0.2H28.6z"/>
	<path class="st0" d="M33.8,21.1h-1.2c-0.1,0-0.2-0.1-0.2-0.2c0-0.1,0.1-0.2,0.2-0.2h1.2c0.1,0,0.2,0.1,0.2,0.2
		C34,21,33.9,21.1,33.8,21.1"/>
	<path class="st0" d="M33.8,21.1h-1.2c-0.1,0-0.2-0.1-0.2-0.2c0-0.1,0.1-0.2,0.2-0.2h1.2c0.1,0,0.2,0.1,0.2,0.2
		C34,21,33.9,21.1,33.8,21.1 M32.6,20.6c-0.1,0-0.2,0.1-0.2,0.2c0,0.1,0.1,0.2,0.2,0.2h1.2c0.1,0,0.2-0.1,0.2-0.2
		c0-0.1-0.1-0.2-0.2-0.2H32.6z"/>
	<path class="st0" d="M32.1,19.3c-0.1,0-0.2,0-0.2-0.1c-0.1-0.1,0-0.3,0.1-0.3l1-0.6c0.1-0.1,0.3,0,0.3,0.1c0.1,0.1,0,0.3-0.1,0.3
		l-1,0.6C32.2,19.3,32.2,19.3,32.1,19.3"/>
	<path class="st0" d="M32.1,19.3c-0.1,0-0.2,0-0.2-0.1c-0.1-0.1,0-0.3,0.1-0.3l1-0.6c0.1-0.1,0.3,0,0.3,0.1c0.1,0.1,0,0.3-0.1,0.3
		l-1,0.6C32.2,19.3,32.2,19.3,32.1,19.3 M33.2,18.3c0,0-0.1,0-0.1,0l-1,0.6c-0.1,0.1-0.1,0.2-0.1,0.3c0,0.1,0.1,0.1,0.2,0.1
		c0,0,0.1,0,0.1,0l1-0.6c0.1-0.1,0.1-0.2,0.1-0.3C33.3,18.4,33.2,18.3,33.2,18.3"/>
	<path class="st0" d="M30.9,18c0,0-0.1,0-0.1,0c-0.1-0.1-0.1-0.2-0.1-0.3l0.6-1c0.1-0.1,0.2-0.1,0.3-0.1c0.1,0.1,0.1,0.2,0.1,0.3
		l-0.6,1C31,18,30.9,18,30.9,18"/>
	<path class="st0" d="M30.9,18.1c0,0-0.1,0-0.1,0c-0.1-0.1-0.2-0.2-0.1-0.3l0.6-1c0.1-0.1,0.2-0.2,0.3-0.1c0.1,0.1,0.2,0.2,0.1,0.3
		l-0.6,1C31,18,31,18.1,30.9,18.1 M31.5,16.6c-0.1,0-0.1,0-0.2,0.1l-0.6,1c-0.1,0.1,0,0.2,0.1,0.3c0,0,0.1,0,0.1,0
		c0.1,0,0.1,0,0.2-0.1l0.6-1c0.1-0.1,0-0.2-0.1-0.3C31.6,16.6,31.5,16.6,31.5,16.6"/>
	<path class="st0" d="M25.6,21.1h-1.2c-0.1,0-0.2-0.1-0.2-0.2c0-0.1,0.1-0.2,0.2-0.2h1.2c0.1,0,0.2,0.1,0.2,0.2
		C25.9,21,25.8,21.1,25.6,21.1"/>
	<path class="st0" d="M25.6,21.1h-1.2c-0.1,0-0.2-0.1-0.2-0.2c0-0.1,0.1-0.2,0.2-0.2h1.2c0.1,0,0.2,0.1,0.2,0.2
		C25.9,21,25.8,21.1,25.6,21.1 M24.5,20.6c-0.1,0-0.2,0.1-0.2,0.2c0,0.1,0.1,0.2,0.2,0.2h1.2c0.1,0,0.2-0.1,0.2-0.2
		c0-0.1-0.1-0.2-0.2-0.2H24.5z"/>
	<path class="st0" d="M26.1,19.3c0,0-0.1,0-0.1,0l-1-0.6c-0.1-0.1-0.2-0.2-0.1-0.3c0.1-0.1,0.2-0.2,0.3-0.1l1,0.6
		c0.1,0.1,0.2,0.2,0.1,0.3C26.3,19.3,26.2,19.3,26.1,19.3"/>
	<path class="st0" d="M26.1,19.3c0,0-0.1,0-0.1,0l-1-0.6c-0.1-0.1-0.2-0.2-0.1-0.3c0-0.1,0.1-0.1,0.1-0.1c0.1,0,0.1,0,0.2,0l1,0.6
		c0.1,0.1,0.2,0.2,0.1,0.3C26.3,19.3,26.2,19.3,26.1,19.3 M25.1,18.3C25.1,18.3,25,18.3,25.1,18.3c-0.1,0-0.2,0.1-0.2,0.1
		c-0.1,0.1,0,0.2,0.1,0.3l1,0.6c0,0,0.1,0,0.1,0c0.1,0,0.1,0,0.2-0.1c0.1-0.1,0-0.2-0.1-0.3l-1-0.6C25.1,18.3,25.1,18.3,25.1,18.3"
		/>
	<path class="st0" d="M27.4,18c-0.1,0-0.2,0-0.2-0.1l-0.6-1c-0.1-0.1,0-0.3,0.1-0.3c0.1-0.1,0.3,0,0.3,0.1l0.6,1
		c0.1,0.1,0,0.3-0.1,0.3C27.5,18,27.4,18,27.4,18"/>
	<path class="st0" d="M27.4,18.1c-0.1,0-0.2,0-0.2-0.1l-0.6-1c0-0.1,0-0.1,0-0.2c0-0.1,0.1-0.1,0.1-0.2c0.1-0.1,0.3,0,0.3,0.1l0.6,1
		c0,0.1,0,0.1,0,0.2c0,0.1-0.1,0.1-0.1,0.2C27.5,18.1,27.4,18.1,27.4,18.1 M26.8,16.6c0,0-0.1,0-0.1,0c0,0-0.1,0.1-0.1,0.1
		c0,0.1,0,0.1,0,0.2l0.6,1c0,0.1,0.1,0.1,0.2,0.1c0,0,0.1,0,0.1,0c0,0,0.1-0.1,0.1-0.1c0-0.1,0-0.1,0-0.2l-0.6-1
		C26.9,16.6,26.8,16.6,26.8,16.6"/>
	<path class="st0" d="M29.1,17.6c-0.1,0-0.2-0.1-0.2-0.2l0-1.2c0-0.1,0.1-0.2,0.2-0.2c0.1,0,0.2,0.1,0.2,0.2l0,1.2
		C29.4,17.5,29.3,17.6,29.1,17.6L29.1,17.6z"/>
	<path class="st0" d="M29.1,17.6L29.1,17.6c-0.1,0-0.3-0.1-0.3-0.2l0-1.2c0-0.1,0.1-0.3,0.2-0.3c0.1,0,0.3,0.1,0.3,0.2l0,1.2
		c0,0.1,0,0.1-0.1,0.2C29.3,17.6,29.2,17.6,29.1,17.6z M29.1,16c-0.1,0-0.2,0.1-0.2,0.2l0,1.2c0,0.1,0.1,0.2,0.2,0.2h0
		c0.1,0,0.1,0,0.2-0.1c0,0,0.1-0.1,0.1-0.2l0-1.2C29.3,16.1,29.2,16,29.1,16"/>
	<path class="st0" d="M33.8,21.1h-1.2c-0.1,0-0.2-0.1-0.2-0.2c0-0.1,0.1-0.2,0.2-0.2h1.2c0.1,0,0.2,0.1,0.2,0.2
		C34,21,33.9,21.1,33.8,21.1"/>
	<path class="st0" d="M33.8,21.1h-1.2c-0.1,0-0.2-0.1-0.2-0.2c0-0.1,0.1-0.2,0.2-0.2h1.2c0.1,0,0.2,0.1,0.2,0.2
		C34,21,33.9,21.1,33.8,21.1 M32.6,20.6c-0.1,0-0.2,0.1-0.2,0.2c0,0.1,0.1,0.2,0.2,0.2h1.2c0.1,0,0.2-0.1,0.2-0.2
		c0-0.1-0.1-0.2-0.2-0.2H32.6z"/>
	<path class="st0" d="M32.1,19.3c-0.1,0-0.2,0-0.2-0.1c-0.1-0.1,0-0.3,0.1-0.3l1-0.6c0.1-0.1,0.3,0,0.3,0.1c0.1,0.1,0,0.3-0.1,0.3
		l-1,0.6C32.2,19.3,32.2,19.3,32.1,19.3"/>
	<path class="st0" d="M32.1,19.3c-0.1,0-0.2,0-0.2-0.1c-0.1-0.1,0-0.3,0.1-0.3l1-0.6c0.1-0.1,0.3,0,0.3,0.1c0.1,0.1,0,0.3-0.1,0.3
		l-1,0.6C32.2,19.3,32.2,19.3,32.1,19.3 M33.2,18.3c0,0-0.1,0-0.1,0l-1,0.6c-0.1,0.1-0.1,0.2-0.1,0.3c0,0.1,0.1,0.1,0.2,0.1
		c0,0,0.1,0,0.1,0l1-0.6c0.1-0.1,0.1-0.2,0.1-0.3C33.3,18.4,33.2,18.3,33.2,18.3"/>
	<path class="st0" d="M30.9,18c0,0-0.1,0-0.1,0c-0.1-0.1-0.1-0.2-0.1-0.3l0.6-1c0.1-0.1,0.2-0.1,0.3-0.1c0.1,0.1,0.1,0.2,0.1,0.3
		l-0.6,1C31,18,30.9,18,30.9,18"/>
	<path class="st0" d="M30.9,18.1c0,0-0.1,0-0.1,0c-0.1-0.1-0.2-0.2-0.1-0.3l0.6-1c0.1-0.1,0.2-0.2,0.3-0.1c0.1,0.1,0.2,0.2,0.1,0.3
		l-0.6,1C31,18,31,18.1,30.9,18.1 M31.5,16.6c-0.1,0-0.1,0-0.2,0.1l-0.6,1c-0.1,0.1,0,0.2,0.1,0.3c0,0,0.1,0,0.1,0
		c0.1,0,0.1,0,0.2-0.1l0.6-1c0.1-0.1,0-0.2-0.1-0.3C31.6,16.6,31.5,16.6,31.5,16.6"/>
	<path class="st0" d="M26.1,19.3c0,0-0.1,0-0.1,0l-1-0.6c-0.1-0.1-0.2-0.2-0.1-0.3c0.1-0.1,0.2-0.2,0.3-0.1l1,0.6
		c0.1,0.1,0.2,0.2,0.1,0.3C26.3,19.3,26.2,19.3,26.1,19.3"/>
	<path class="st0" d="M26.1,19.3c0,0-0.1,0-0.1,0l-1-0.6c-0.1-0.1-0.2-0.2-0.1-0.3c0-0.1,0.1-0.1,0.1-0.1c0.1,0,0.1,0,0.2,0l1,0.6
		c0.1,0.1,0.2,0.2,0.1,0.3C26.3,19.3,26.2,19.3,26.1,19.3 M25.1,18.3C25.1,18.3,25,18.3,25.1,18.3c-0.1,0-0.2,0.1-0.2,0.1
		c-0.1,0.1,0,0.2,0.1,0.3l1,0.6c0,0,0.1,0,0.1,0c0.1,0,0.1,0,0.2-0.1c0.1-0.1,0-0.2-0.1-0.3l-1-0.6C25.1,18.3,25.1,18.3,25.1,18.3"
		/>
	<path class="st0" d="M27.4,18c-0.1,0-0.2,0-0.2-0.1l-0.6-1c-0.1-0.1,0-0.3,0.1-0.3c0.1-0.1,0.3,0,0.3,0.1l0.6,1
		c0.1,0.1,0,0.3-0.1,0.3C27.5,18,27.4,18,27.4,18"/>
	<path class="st0" d="M27.4,18.1c-0.1,0-0.2,0-0.2-0.1l-0.6-1c0-0.1,0-0.1,0-0.2c0-0.1,0.1-0.1,0.1-0.2c0.1-0.1,0.3,0,0.3,0.1l0.6,1
		c0,0.1,0,0.1,0,0.2c0,0.1-0.1,0.1-0.1,0.2C27.5,18.1,27.4,18.1,27.4,18.1 M26.8,16.6c0,0-0.1,0-0.1,0c0,0-0.1,0.1-0.1,0.1
		c0,0.1,0,0.1,0,0.2l0.6,1c0,0.1,0.1,0.1,0.2,0.1c0,0,0.1,0,0.1,0c0,0,0.1-0.1,0.1-0.1c0-0.1,0-0.1,0-0.2l-0.6-1
		C26.9,16.6,26.8,16.6,26.8,16.6"/>
	<path class="st0" d="M29.1,17.6c-0.1,0-0.2-0.1-0.2-0.2l0-1.2c0-0.1,0.1-0.2,0.2-0.2c0.1,0,0.2,0.1,0.2,0.2l0,1.2
		C29.4,17.5,29.3,17.6,29.1,17.6L29.1,17.6z"/>
	<path class="st0" d="M29.1,17.6L29.1,17.6c-0.1,0-0.3-0.1-0.3-0.2l0-1.2c0-0.1,0.1-0.3,0.2-0.3c0.1,0,0.3,0.1,0.3,0.2l0,1.2
		c0,0.1,0,0.1-0.1,0.2C29.3,17.6,29.2,17.6,29.1,17.6z M29.1,16c-0.1,0-0.2,0.1-0.2,0.2l0,1.2c0,0.1,0.1,0.2,0.2,0.2h0
		c0.1,0,0.1,0,0.2-0.1c0,0,0.1-0.1,0.1-0.2l0-1.2C29.3,16.1,29.2,16,29.1,16"/>
	<path class="st0" d="M22.5,21.6c-0.1,0-0.2,0.1-0.2,0.2v6.5c0,0.1,0.1,0.2,0.2,0.2h13.3c0.1,0,0.2-0.1,0.2-0.2v-6.5
		c0-0.1-0.1-0.2-0.2-0.2c-0.1,0-0.2,0.1-0.2,0.2v6.3H22.7v-6.3C22.7,21.7,22.6,21.6,22.5,21.6"/>
	<path class="st0" d="M35.7,28.6H22.5c-0.1,0-0.3-0.1-0.3-0.3v-6.5c0-0.1,0.1-0.3,0.3-0.3c0.1,0,0.3,0.1,0.3,0.3v6.2h12.8v-6.2
		c0-0.1,0.1-0.3,0.3-0.3c0.1,0,0.3,0.1,0.3,0.3v6.5C36,28.5,35.9,28.6,35.7,28.6 M22.5,21.6c-0.1,0-0.2,0.1-0.2,0.2v6.5
		c0,0.1,0.1,0.2,0.2,0.2h13.3c0.1,0,0.2-0.1,0.2-0.2v-6.5c0-0.1-0.1-0.2-0.2-0.2c-0.1,0-0.2,0.1-0.2,0.2v6.3H22.7v-6.3
		C22.7,21.7,22.6,21.6,22.5,21.6"/>
	<path class="st0" d="M29.1,13.6l8.5,7.3c0,0,0.1,0.1,0.2,0.1c0.1,0,0.1,0,0.2-0.1c0,0,0.1-0.1,0.1-0.2c0-0.1,0-0.1-0.1-0.2
		l-8.7-7.5c-0.1-0.1-0.2-0.1-0.3,0l-8.7,7.5c-0.1,0.1-0.1,0.2,0,0.3c0,0.1,0.1,0.1,0.2,0.1c0,0,0.1,0,0.2-0.1L29.1,13.6z"/>
	<path class="st0" d="M37.8,21c-0.1,0-0.1,0-0.2-0.1l-8.5-7.3l-8.6,7.3c-0.1,0-0.1,0.1-0.2,0.1c-0.1,0-0.1,0-0.2-0.1
		c-0.1-0.1-0.1-0.3,0-0.4l8.7-7.5c0.1-0.1,0.2-0.1,0.3,0l8.7,7.5c0.1,0,0.1,0.1,0.1,0.2c0,0.1,0,0.1-0.1,0.2
		C37.9,21,37.9,21,37.8,21C37.8,21,37.8,21,37.8,21 M29.1,13.6L29.1,13.6l8.5,7.3c0,0,0.1,0.1,0.2,0.1c0.1,0,0.1,0,0.1-0.1
		c0,0,0.1-0.1,0.1-0.2c0-0.1,0-0.1-0.1-0.1l-8.7-7.5c-0.1-0.1-0.2-0.1-0.3,0l-8.7,7.5c-0.1,0.1-0.1,0.2,0,0.3c0,0,0.1,0.1,0.2,0.1
		c0,0,0.1,0,0.1-0.1L29.1,13.6z"/>
</g>
</svg>
