<?xml version="1.0" encoding="utf-8"?>
<!-- Generator: Adobe Illustrator 19.2.0, SVG Export Plug-In . SVG Version: 6.00 Build 0)  -->
<!DOCTYPE svg PUBLIC "-//W3C//DTD SVG 1.1//EN" "http://www.w3.org/Graphics/SVG/1.1/DTD/svg11.dtd">
<svg version="1.1" id="Layer_1" xmlns="http://www.w3.org/2000/svg" xmlns:xlink="http://www.w3.org/1999/xlink" x="0px" y="0px"
	 viewBox="0 0 40 40" style="enable-background:new 0 0 40 40;" xml:space="preserve">
<style type="text/css">
	.st0{fill:#ffffff;}
</style>
<g>
	<path class="st0" d="M11.7,26c-4.2,0-5.8-1.3-8.5-3.5c-0.4-0.3-0.8-0.6-1.2-1c-0.1-0.1-0.1-0.2-0.2-0.3c0-0.1,0-0.2,0.1-0.3
		c4-5.1,9.4-6.7,9.6-6.7c0.2-0.1,0.4,0.1,0.5,0.3c0.1,0.2-0.1,0.4-0.3,0.5c-0.1,0-5.1,1.5-9,6.1c0.3,0.3,0.6,0.5,0.9,0.7
		c2.9,2.3,4.3,3.5,9,3.3c0.2,0,0.4,0.2,0.4,0.4c0,0.2-0.2,0.4-0.4,0.4C12.3,26,12,26,11.7,26z"/>
	<path class="st0" d="M11.4,24.4c-1.6,0-2.8-1.8-2.8-3.9s1.3-3.9,2.8-3.9s2.8,1.8,2.8,3.9S12.9,24.4,11.4,24.4z M11.4,17.4
		c-1.1,0-2,1.4-2,3.1c0,1.7,0.9,3.1,2,3.1s2-1.4,2-3.1C13.4,18.8,12.5,17.4,11.4,17.4z"/>
	<ellipse class="st0" cx="12.6" cy="20.1" rx="1.2" ry="1.7"/>
	<g>
		<path class="st0" d="M17.5,20.5h-1.2c-0.2,0-0.4-0.2-0.4-0.4s0.2-0.4,0.4-0.4h1.2c0.2,0,0.4,0.2,0.4,0.4S17.8,20.5,17.5,20.5z"/>
		<path class="st0" d="M31.5,20.5h-2.3c-0.2,0-0.4-0.2-0.4-0.4s0.2-0.4,0.4-0.4h2.3c0.2,0,0.4,0.2,0.4,0.4S31.7,20.5,31.5,20.5z
			 M26.8,20.5h-2.3c-0.2,0-0.4-0.2-0.4-0.4s0.2-0.4,0.4-0.4h2.3c0.2,0,0.4,0.2,0.4,0.4S27,20.5,26.8,20.5z M22.2,20.5h-2.3
			c-0.2,0-0.4-0.2-0.4-0.4s0.2-0.4,0.4-0.4h2.3c0.2,0,0.4,0.2,0.4,0.4S22.4,20.5,22.2,20.5z"/>
		<path class="st0" d="M35,20.5h-1.2c-0.2,0-0.4-0.2-0.4-0.4s0.2-0.4,0.4-0.4H35c0.2,0,0.4,0.2,0.4,0.4S35.2,20.5,35,20.5z"/>
	</g>
	<path class="st0" d="M35,24.4c-0.1,0-0.2,0-0.3-0.1c-0.2-0.1-0.2-0.4,0-0.6l3.2-3.7l-3.2-3.5c-0.1-0.2-0.1-0.4,0-0.6
		c0.2-0.1,0.4-0.1,0.6,0l3.4,3.8c0.1,0.1,0.1,0.4,0,0.5l-3.4,4C35.2,24.4,35.1,24.4,35,24.4z"/>
</g>
</svg>
