<?xml version="1.0" encoding="utf-8"?>
<!-- Generator: Adobe Illustrator 19.2.0, SVG Export Plug-In . SVG Version: 6.00 Build 0)  -->
<!DOCTYPE svg PUBLIC "-//W3C//DTD SVG 1.1//EN" "http://www.w3.org/Graphics/SVG/1.1/DTD/svg11.dtd">
<svg version="1.1" id="Layer_1" xmlns="http://www.w3.org/2000/svg" xmlns:xlink="http://www.w3.org/1999/xlink" x="0px" y="0px"
	 viewBox="0 0 40 40" style="enable-background:new 0 0 40 40;" xml:space="preserve">
<style type="text/css">
	.st0{fill:#ffffff;}
</style>
<g>
	<g>
		<path class="st0" d="M9.8,31.2l-0.3-0.5c-0.2-0.4-4.8-9-5.7-11.4c-0.6-1.7-0.7-4.3,0.7-6.3c0.8-1.1,2.4-2.5,5.5-2.5
			c2.2,0,3.8,0.7,4.9,2c1.5,1.9,1.4,4.8,1.1,6.1c-0.4,1.8-5.7,11.6-6,12L9.8,31.2z M10.1,11.2c-2.3,0-4,0.8-5,2.2
			c-1.2,1.8-1.2,4.2-0.6,5.7c0.8,2,4.4,8.9,5.4,10.8c1.1-2.1,5.3-9.9,5.6-11.4c0.3-1.2,0.4-3.8-1-5.6C13.5,11.8,12,11.2,10.1,11.2z"
			/>
		<path class="st0" d="M9.8,20.9c-2.1,0-3.8-1.7-3.8-3.8s1.7-3.8,3.8-3.8s3.8,1.7,3.8,3.8S11.9,20.9,9.8,20.9z M9.8,14
			c-1.8,0-3.2,1.4-3.2,3.2c0,1.8,1.4,3.2,3.2,3.2c1.8,0,3.2-1.4,3.2-3.2C13,15.4,11.5,14,9.8,14z"/>
	</g>
	<path class="st0" d="M12.1,30.9c-0.2,0-0.3-0.1-0.3-0.3c0-0.2,0.1-0.3,0.3-0.3c7.2-0.5,17.1-2.4,17.8-3.3c0-0.8-3.2-1.4-5.1-1.7
		c-2.5-0.4-5.5-1.6-5.7-2.7c0-0.2,0-0.5,0.4-0.8c1.2-0.8,10.5-1.6,11.5-1.7c0.2,0,0.3,0.1,0.3,0.3c0,0.2-0.1,0.3-0.3,0.3
		c-4,0.3-10.4,1-11.2,1.6c-0.1,0.1-0.1,0.1-0.1,0.2c0.1,0.6,2.4,1.8,5.2,2.3c3.5,0.5,5.8,1.2,5.7,2.4c0,0.3-0.1,0.9-6.7,2.2
		C19.9,30.1,15.4,30.7,12.1,30.9C12.1,30.9,12.1,30.9,12.1,30.9z"/>
	<g>
		<path class="st0" d="M33.4,21.1l-0.3-0.5c-0.1-0.2-2.8-5.3-3.4-6.7c-0.4-1-0.4-2.6,0.4-3.8c0.5-0.7,1.5-1.5,3.4-1.5
			c1.3,0,2.3,0.4,3,1.2c0.9,1.1,0.9,2.7,0.7,3.7c-0.3,1-3.4,6.9-3.5,7.1L33.4,21.1z M33.6,9.1c-1.3,0-2.3,0.4-2.9,1.3
			c-0.7,1-0.7,2.4-0.3,3.3c0.4,1.1,2.3,4.8,3.1,6.2c1-1.9,3-5.7,3.2-6.5c0.2-0.7,0.3-2.2-0.5-3.2C35.5,9.4,34.7,9.1,33.6,9.1z"/>
		<path class="st0" d="M33.4,14.8c-1.3,0-2.4-1.1-2.4-2.4c0-1.3,1.1-2.4,2.4-2.4c1.3,0,2.4,1.1,2.4,2.4
			C35.8,13.8,34.7,14.8,33.4,14.8z M33.4,10.7c-1,0-1.7,0.8-1.7,1.7s0.8,1.7,1.7,1.7s1.7-0.8,1.7-1.7S34.4,10.7,33.4,10.7z"/>
	</g>
</g>
</svg>
