<?xml version="1.0" encoding="utf-8"?>
<!-- Generator: Adobe Illustrator 19.2.0, SVG Export Plug-In . SVG Version: 6.00 Build 0)  -->
<!DOCTYPE svg PUBLIC "-//W3C//DTD SVG 1.1//EN" "http://www.w3.org/Graphics/SVG/1.1/DTD/svg11.dtd">
<svg version="1.1" id="Layer_1" xmlns="http://www.w3.org/2000/svg" xmlns:xlink="http://www.w3.org/1999/xlink" x="0px" y="0px"
	 viewBox="0 0 40 40" style="enable-background:new 0 0 40 40;" xml:space="preserve">
<style type="text/css">
	.st0{fill:#ffffff;}
</style>
<g>
	<path class="st0" d="M19.9,31.3c-0.4,0-0.8,0-1.1,0c-0.3,0-0.7,0-1,0c-3.5,0-6-1-8-3.4C9,27,8.2,25,7.7,22.5
		c-0.5-2.2-0.8-4.4-0.7-5.6c0.1-1,0.7-3.3,5-4.4c6.2-1.4,15-0.4,15.1-0.4l0,0c2.8,0.3,4.6,1.2,5.5,2.5c0.7,1,0.5,1.9,0.5,2.1
		c0,0.5-0.5,6.8-2.8,10.8C28.2,31,23.6,31.3,19.9,31.3z M20.3,12.4c-2.6,0-5.6,0.2-8.2,0.8c-3.9,1-4.4,3.2-4.5,3.8
		c-0.2,2.3,1.1,8.6,2.7,10.5c1.9,2.2,4.1,3.2,7.5,3.2c0.3,0,0.7,0,1,0c3.7,0,8.8,0.1,10.9-3.5c2.3-4,2.7-10.5,2.7-10.5l0-0.1
		c0,0,0.2-0.8-0.4-1.7c-0.8-1.1-2.5-1.9-5-2.2C26.9,12.7,23.9,12.4,20.3,12.4z"/>
	<g>
		<path class="st0" d="M22.7,14.3c0,0-7.1,6.6-8.2,8.5C16.4,21.2,22.1,16,22.7,14.3z"/>
		<path class="st0" d="M18.2,15.6c0,0,7.1,6.4,8.5,8.7C23.1,21,20.8,18.6,18.2,15.6z"/>
		<path class="st0" d="M14.2,15.6c0,0,9.2,8.4,11.4,11.5C22.4,24.6,15.3,16.9,14.2,15.6z"/>
		<path class="st0" d="M13.8,19.6c0,0,5.6,5,7.6,7.7C18.7,25.3,14.5,20.6,13.8,19.6z"/>
		<path class="st0" d="M15.1,25.4c0,0,7.3-8,9.8-9.8C23,18,17.4,23.9,15.1,25.4z"/>
		<path class="st0" d="M17,28.3c0,0,6-6.8,8.6-8.6C23.8,22.1,19.2,26.3,17,28.3z"/>
	</g>
</g>
</svg>
