<?xml version="1.0" encoding="utf-8"?>
<!-- Generator: Adobe Illustrator 19.2.0, SVG Export Plug-In . SVG Version: 6.00 Build 0)  -->
<!DOCTYPE svg PUBLIC "-//W3C//DTD SVG 1.1//EN" "http://www.w3.org/Graphics/SVG/1.1/DTD/svg11.dtd">
<svg version="1.1" id="Layer_1" xmlns="http://www.w3.org/2000/svg" xmlns:xlink="http://www.w3.org/1999/xlink" x="0px" y="0px"
	 viewBox="0 0 40 40" style="enable-background:new 0 0 40 40;" xml:space="preserve">
<style type="text/css">
	.st0{clip-path:url(#SVGID_2_);fill:#ffffff;}
	.st1{fill:#ffffff;}
	.st2{clip-path:url(#SVGID_4_);fill:#ffffff;}
	.st3{clip-path:url(#SVGID_6_);fill:#ffffff;}
</style>
<g>
	<g>
		<defs>
			<rect id="SVGID_1_" x="9" y="7.2" width="12.3" height="24.4"/>
		</defs>
		<clipPath id="SVGID_2_">
			<use xlink:href="#SVGID_1_"  style="overflow:visible;"/>
		</clipPath>
		<path class="st0" d="M21.3,25.8c-3.2,0-5.9-2.6-5.9-5.9S18,14,21.3,14s5.9,2.6,5.9,5.9S24.5,25.8,21.3,25.8z M21.3,14.8
			c-2.8,0-5.1,2.3-5.1,5.1c0,2.8,2.3,5.1,5.1,5.1s5.1-2.3,5.1-5.1C26.4,17.1,24.1,14.8,21.3,14.8z"/>
	</g>
	<path class="st1" d="M13.5,20h-2.6c-0.2,0-0.4-0.2-0.4-0.4s0.2-0.4,0.4-0.4h2.6c0.2,0,0.4,0.2,0.4,0.4S13.7,20,13.5,20z"/>
	<path class="st1" d="M14.5,16.1c-0.1,0-0.1,0-0.2,0l-2.3-1.3c-0.2-0.1-0.2-0.3-0.1-0.5c0.1-0.2,0.3-0.2,0.5-0.1l2.3,1.3
		c0.2,0.1,0.2,0.3,0.1,0.5C14.8,16,14.7,16.1,14.5,16.1z"/>
	<path class="st1" d="M17.4,13.2c-0.1,0-0.3-0.1-0.3-0.2l-1.4-2.2c-0.1-0.2-0.1-0.4,0.1-0.5c0.2-0.1,0.4-0.1,0.5,0.1l1.4,2.2
		c0.1,0.2,0.1,0.4-0.1,0.5C17.5,13.2,17.4,13.2,17.4,13.2z"/>
	<g>
		<defs>
			<rect id="SVGID_3_" x="9" y="7.2" width="12.3" height="24.4"/>
		</defs>
		<clipPath id="SVGID_4_">
			<use xlink:href="#SVGID_3_"  style="overflow:visible;"/>
		</clipPath>
		<path class="st2" d="M21.3,12.2c-0.2,0-0.4-0.2-0.4-0.4l0-2.6c0-0.2,0.2-0.4,0.4-0.4c0,0,0,0,0,0c0.2,0,0.4,0.2,0.4,0.4l0,2.6
			C21.7,12,21.5,12.2,21.3,12.2C21.3,12.2,21.3,12.2,21.3,12.2z"/>
	</g>
	<path class="st1" d="M12.3,25.1c-0.1,0-0.3-0.1-0.3-0.2c-0.1-0.2,0-0.4,0.1-0.5l2.3-1.3c0.2-0.1,0.4,0,0.5,0.1
		c0.1,0.2,0,0.4-0.1,0.5l-2.3,1.3C12.4,25.1,12.3,25.1,12.3,25.1z"/>
	<path class="st1" d="M16,28.9c-0.1,0-0.1,0-0.2-0.1c-0.2-0.1-0.2-0.3-0.1-0.5l1.4-2.2c0.1-0.2,0.3-0.2,0.5-0.1
		c0.2,0.1,0.2,0.3,0.1,0.5l-1.4,2.2C16.3,28.8,16.1,28.9,16,28.9z"/>
	<g>
		<path class="st1" d="M21.3,30.3C21.3,30.3,21.3,30.3,21.3,30.3c-0.2,0-0.4-0.2-0.4-0.4l0-2.6c0-0.2,0.2-0.4,0.4-0.4c0,0,0,0,0,0
			c0.2,0,0.4,0.2,0.4,0.4l0,2.6C21.6,30.1,21.5,30.3,21.3,30.3z"/>
	</g>
	<g>
		<defs>
			<rect id="SVGID_5_" x="21.3" y="6.4" width="8.2" height="26.1"/>
		</defs>
		<clipPath id="SVGID_6_">
			<use xlink:href="#SVGID_5_"  style="overflow:visible;"/>
		</clipPath>
		<path class="st3" d="M27.5,30.6h-9.7c-0.6,0-1.2-0.5-1.2-1.2V10.3c0-0.6,0.5-1.2,1.2-1.2h9.7c0.6,0,1.2,0.5,1.2,1.2v19.2
			C28.7,30.1,28.2,30.6,27.5,30.6z M17.8,9.7c-0.3,0-0.6,0.2-0.6,0.6v19.2c0,0.3,0.2,0.6,0.6,0.6h9.7c0.3,0,0.6-0.2,0.6-0.6V10.3
			c0-0.3-0.2-0.6-0.6-0.6H17.8z"/>
		<path class="st3" d="M26.7,27h-8.3c-0.3,0-0.5-0.2-0.5-0.5V12.2c0-0.3,0.2-0.5,0.5-0.5h8.3c0.3,0,0.5,0.2,0.5,0.5v14.2
			C27.2,26.7,27,27,26.7,27z M18.5,26.4h8.2V12.3h-8.2V26.4z"/>
		<path class="st3" d="M23.3,10.7h-1.7c-0.1,0-0.2-0.1-0.2-0.2s0.1-0.2,0.2-0.2h1.7c0.1,0,0.2,0.1,0.2,0.2S23.4,10.7,23.3,10.7z"/>
		<path class="st3" d="M23.6,28.9c0,0.5-0.4,0.9-0.9,0.9c-0.5,0-0.9-0.4-0.9-0.9c0-0.5,0.4-0.9,0.9-0.9C23.2,28,23.6,28.4,23.6,28.9
			"/>
	</g>
	<g>
		<path class="st1" d="M21.3,35.4c-0.2,0-0.4-0.2-0.4-0.4V5.9c0-0.2,0.2-0.4,0.4-0.4s0.4,0.2,0.4,0.4V35
			C21.6,35.3,21.5,35.4,21.3,35.4z"/>
	</g>
</g>
</svg>
