<?xml version="1.0" encoding="utf-8"?>
<!-- Generator: Adobe Illustrator 19.2.0, SVG Export Plug-In . SVG Version: 6.00 Build 0)  -->
<!DOCTYPE svg PUBLIC "-//W3C//DTD SVG 1.1//EN" "http://www.w3.org/Graphics/SVG/1.1/DTD/svg11.dtd">
<svg version="1.1" id="Layer_1" xmlns="http://www.w3.org/2000/svg" xmlns:xlink="http://www.w3.org/1999/xlink" x="0px" y="0px"
	 viewBox="0 0 40 40" style="enable-background:new 0 0 40 40;" xml:space="preserve">
<style type="text/css">
	.st0{clip-path:url(#SVGID_2_);fill:#ffffff;}
	.st1{fill:#ffffff;}
	.st2{clip-path:url(#SVGID_4_);fill:#ffffff;}
	.st3{clip-path:url(#SVGID_6_);fill:#ffffff;}
</style>
<g>
	<path class="st1" d="M20,22.9c-1.8,0-3.2-1.4-3.2-3.2c0-1.8,1.4-3.2,3.2-3.2c1.8,0,3.2,1.4,3.2,3.2C23.2,21.4,21.7,22.9,20,22.9z
		 M20,17c-1.5,0-2.7,1.2-2.7,2.7s1.2,2.7,2.7,2.7c1.5,0,2.7-1.2,2.7-2.7S21.4,17,20,17z"/>
	<path class="st1" d="M20.9,19.6c0,0.5-0.4,0.9-0.9,0.9c-0.5,0-0.9-0.4-0.9-0.9c0-0.5,0.4-0.9,0.9-0.9
		C20.4,18.7,20.9,19.1,20.9,19.6"/>
	<g>
		<path class="st1" d="M32.1,27.4H7.9V11.3h24.2V27.4z M8.5,26.8h23.1v-15H8.5V26.8z"/>
		<path class="st1" d="M29.5,25.1h-19V13.9h19V25.1z M11,24.6H29V14.5H11V24.6z"/>
		<path class="st1" d="M32.6,29.6H7.4c-1.3,0-2.4-1.1-2.4-2.4v-0.4H35v0.4C35,28.6,33.9,29.6,32.6,29.6z M5.6,27.4
			c0.1,0.9,0.8,1.7,1.8,1.7h25.2c0.9,0,1.7-0.7,1.8-1.7H5.6z"/>
		<path class="st1" d="M20,23.2c-4,0-6.4-3.3-6.5-3.4l-0.1-0.2l0.1-0.2C13.5,19.3,16,16,20,16c4,0,6.4,3.3,6.5,3.4l0.1,0.2l-0.1,0.2
			C26.4,19.9,24,23.2,20,23.2z M14,19.6c0.5,0.7,2.7,3,5.9,3c3.2,0,5.4-2.4,5.9-3c-0.5-0.7-2.7-3-5.9-3C16.7,16.6,14.6,19,14,19.6z"
			/>
		<path class="st1" d="M21.1,13.5h-2.5c-0.2,0-0.3-0.1-0.3-0.3s0.1-0.3,0.3-0.3h2.5c0.2,0,0.3,0.1,0.3,0.3S21.3,13.5,21.1,13.5z"/>
	</g>
</g>
</svg>
