<?xml version="1.0" encoding="utf-8"?>
<!-- Generator: Adobe Illustrator 19.2.0, SVG Export Plug-In . SVG Version: 6.00 Build 0)  -->
<!DOCTYPE svg PUBLIC "-//W3C//DTD SVG 1.1//EN" "http://www.w3.org/Graphics/SVG/1.1/DTD/svg11.dtd">
<svg version="1.1" id="Layer_1" xmlns="http://www.w3.org/2000/svg" xmlns:xlink="http://www.w3.org/1999/xlink" x="0px" y="0px"
	 viewBox="0 0 40 40" style="enable-background:new 0 0 40 40;" xml:space="preserve">
<style type="text/css">
	.st0{fill:#ffffff;}
</style>
<g>
	<path class="st0" d="M19.9,30.6c-0.4,0-0.8,0-1.1,0c-0.3,0-0.7,0-1,0c-3.5,0-6-1-7.9-3.4c-0.8-0.9-1.5-2.9-2.1-5.3
		c-0.5-2.2-0.8-4.4-0.7-5.6c0.1-0.9,0.7-3.3,5-4.4c6.2-1.4,14.9-0.4,15-0.4l0,0c2.8,0.3,4.6,1.2,5.5,2.4c0.7,1,0.5,1.9,0.5,2.1
		c0,0.5-0.5,6.8-2.8,10.7C28.1,30.3,23.6,30.6,19.9,30.6z M20.3,11.8c-2.6,0-5.6,0.2-8.1,0.8c-3.9,1-4.4,3.2-4.5,3.8
		c-0.2,2.3,1.1,8.6,2.7,10.4c1.8,2.2,4.1,3.2,7.4,3.2c0.3,0,0.7,0,1,0c3.7,0,8.8,0.1,10.9-3.5c2.3-3.9,2.7-10.4,2.7-10.5l0-0.1
		c0,0,0.2-0.8-0.4-1.7c-0.8-1.1-2.5-1.8-5-2.2C26.9,12.1,23.9,11.8,20.3,11.8z"/>
	<g>
		<path class="st0" d="M20,24.9c-2.4,0-4.4-2-4.4-4.4c0-2.4,2-4.4,4.4-4.4s4.4,2,4.4,4.4C24.4,22.9,22.5,24.9,20,24.9z M20,16.7
			c-2.1,0-3.8,1.7-3.8,3.8s1.7,3.8,3.8,3.8s3.8-1.7,3.8-3.8S22.1,16.7,20,16.7z"/>
		<g>
			<path class="st0" d="M17.5,20.5h-4.2c-0.2,0-0.3-0.1-0.3-0.3s0.1-0.3,0.3-0.3h4.2c0.2,0,0.3,0.1,0.3,0.3S17.7,20.5,17.5,20.5z"/>
			<path class="st0" d="M26.4,20.5h-4.2c-0.2,0-0.3-0.1-0.3-0.3s0.1-0.3,0.3-0.3h4.2c0.2,0,0.3,0.1,0.3,0.3S26.6,20.5,26.4,20.5z"/>
		</g>
		<g>
			<path class="st0" d="M20,18.1c-0.2,0-0.3-0.1-0.3-0.3v-4.2c0-0.2,0.1-0.3,0.3-0.3s0.3,0.1,0.3,0.3v4.2C20.3,18,20.1,18.1,20,18.1
				z"/>
			<path class="st0" d="M20,27.1c-0.2,0-0.3-0.1-0.3-0.3v-4.2c0-0.2,0.1-0.3,0.3-0.3s0.3,0.1,0.3,0.3v4.2
				C20.3,26.9,20.1,27.1,20,27.1z"/>
		</g>
	</g>
</g>
</svg>
