<?xml version="1.0" encoding="utf-8"?>
<!-- Generator: Adobe Illustrator 19.2.0, SVG Export Plug-In . SVG Version: 6.00 Build 0)  -->
<!DOCTYPE svg PUBLIC "-//W3C//DTD SVG 1.1//EN" "http://www.w3.org/Graphics/SVG/1.1/DTD/svg11.dtd">
<svg version="1.1" id="Layer_1" xmlns="http://www.w3.org/2000/svg" xmlns:xlink="http://www.w3.org/1999/xlink" x="0px" y="0px"
	 viewBox="0 0 40 40" style="enable-background:new 0 0 40 40;" xml:space="preserve">
<style type="text/css">
	.st0{fill:#0082CA;}
</style>
<g>
	<path class="st0" d="M19.9,31.3c-0.4,0-0.8,0-1.1,0c-0.3,0-0.7,0-1,0c-3.5,0-6-1-8-3.4C9,27,8.2,25,7.7,22.5
		c-0.5-2.2-0.8-4.4-0.7-5.6c0.1-1,0.7-3.3,5-4.4c6.2-1.4,15-0.4,15.1-0.4l0,0c2.8,0.3,4.6,1.2,5.5,2.5c0.7,1,0.5,1.9,0.5,2.1
		c0,0.5-0.5,6.8-2.8,10.8C28.2,31,23.6,31.3,19.9,31.3z M20.3,12.4c-2.6,0-5.6,0.2-8.2,0.8c-3.9,1-4.4,3.2-4.5,3.8
		c-0.2,2.3,1.1,8.6,2.7,10.5c1.9,2.2,4.1,3.2,7.5,3.2c0.3,0,0.7,0,1,0c3.7,0,8.8,0.1,10.9-3.5c2.3-4,2.7-10.5,2.7-10.5l0-0.1
		c0,0,0.2-0.8-0.4-1.7c-0.8-1.1-2.5-1.9-5-2.2C26.9,12.7,23.9,12.4,20.3,12.4z"/>
	<g>
		<g>
			<path class="st0" d="M18.8,23.1c-0.7,0-1.1-0.4-1.1-1.1v-1.2c0-0.1,0.1-0.2,0.2-0.2c0.1,0,0.2,0.1,0.2,0.2v1.2
				c0,0.4,0.2,0.7,0.6,0.7c0.4,0,0.6-0.3,0.6-0.7v-1.2c0-0.1,0.1-0.2,0.2-0.2c0.1,0,0.2,0.1,0.2,0.2v1.2
				C19.9,22.6,19.5,23.1,18.8,23.1"/>
			<path class="st0" d="M21.3,23c-0.1,0-0.2,0-0.2-0.1l-1-2.1c-0.1-0.1,0-0.2,0.1-0.3c0.1-0.1,0.2,0,0.3,0.1l0.8,1.7l0.8-1.7
				c0.1-0.1,0.2-0.2,0.3-0.1c0.1,0.1,0.2,0.2,0.1,0.3l-1,2.1C21.5,23,21.4,23,21.3,23"/>
			<path class="st0" d="M20.1,25.4c-2.1,0-3.8-1.7-3.8-3.8c0-2.1,1.7-3.8,3.8-3.8c2.1,0,3.8,1.7,3.8,3.8
				C24,23.7,22.2,25.4,20.1,25.4 M20.1,18.3c-1.8,0-3.3,1.5-3.3,3.3c0,1.8,1.5,3.3,3.3,3.3c1.8,0,3.3-1.5,3.3-3.3
				C23.4,19.8,22,18.3,20.1,18.3"/>
			<path class="st0" d="M26.9,21.6h-1.7c-0.1,0-0.3-0.1-0.3-0.3c0-0.1,0.1-0.3,0.3-0.3h1.7c0.1,0,0.3,0.1,0.3,0.3
				C27.1,21.5,27,21.6,26.9,21.6"/>
			<path class="st0" d="M24.5,19.1c-0.1,0-0.2,0-0.2-0.1c-0.1-0.1,0-0.3,0.1-0.3l1.5-0.8c0.1-0.1,0.3,0,0.3,0.1
				c0.1,0.1,0,0.3-0.1,0.3l-1.5,0.8C24.6,19.1,24.5,19.1,24.5,19.1"/>
			<path class="st0" d="M22.7,17.3c0,0-0.1,0-0.1,0c-0.1-0.1-0.2-0.2-0.1-0.3l0.9-1.4c0.1-0.1,0.2-0.2,0.3-0.1
				c0.1,0.1,0.2,0.2,0.1,0.3l-0.9,1.4C22.8,17.2,22.8,17.3,22.7,17.3"/>
			<path class="st0" d="M15.1,21.6h-1.7c-0.1,0-0.3-0.1-0.3-0.3c0-0.1,0.1-0.3,0.3-0.3h1.7c0.1,0,0.3,0.1,0.3,0.3
				C15.4,21.5,15.2,21.6,15.1,21.6"/>
			<path class="st0" d="M15.8,19.1c0,0-0.1,0-0.1,0l-1.5-0.8c-0.1-0.1-0.2-0.2-0.1-0.3c0.1-0.1,0.2-0.2,0.3-0.1l1.5,0.8
				c0.1,0.1,0.2,0.2,0.1,0.3C16,19.1,15.9,19.1,15.8,19.1"/>
			<path class="st0" d="M17.6,17.3c-0.1,0-0.2,0-0.2-0.1l-0.9-1.4c-0.1-0.1,0-0.3,0.1-0.3c0.1-0.1,0.3,0,0.3,0.1l0.9,1.4
				c0.1,0.1,0,0.3-0.1,0.3C17.7,17.3,17.7,17.3,17.6,17.3"/>
			<path class="st0" d="M20.2,16.6c-0.1,0-0.3-0.1-0.3-0.3l0-1.7c0-0.1,0.1-0.3,0.3-0.3h0c0.1,0,0.3,0.1,0.3,0.3l0,1.7
				C20.4,16.5,20.3,16.6,20.2,16.6L20.2,16.6z"/>
			<path class="st0" d="M26,25c0,0-0.1,0-0.1,0l-1.5-0.8c-0.1-0.1-0.2-0.2-0.1-0.3c0.1-0.1,0.2-0.2,0.3-0.1l1.5,0.8
				c0.1,0.1,0.2,0.2,0.1,0.3C26.1,24.9,26.1,25,26,25"/>
			<path class="st0" d="M23.5,27.4c-0.1,0-0.2,0-0.2-0.1l-0.9-1.4c-0.1-0.1,0-0.3,0.1-0.3c0.1-0.1,0.3,0,0.3,0.1l0.9,1.4
				c0.1,0.1,0,0.3-0.1,0.3C23.6,27.4,23.6,27.4,23.5,27.4"/>
			<path class="st0" d="M14.3,25c-0.1,0-0.2,0-0.2-0.1c-0.1-0.1,0-0.3,0.1-0.3l1.5-0.8c0.1-0.1,0.3,0,0.3,0.1c0.1,0.1,0,0.3-0.1,0.3
				l-1.5,0.8C14.4,25,14.4,25,14.3,25"/>
			<path class="st0" d="M16.7,27.4c0,0-0.1,0-0.1,0c-0.1-0.1-0.2-0.2-0.1-0.3l0.9-1.4c0.1-0.1,0.2-0.2,0.3-0.1
				c0.1,0.1,0.2,0.2,0.1,0.3L17,27.3C16.9,27.4,16.8,27.4,16.7,27.4"/>
			<path class="st0" d="M20.1,28.3L20.1,28.3c-0.1,0-0.3-0.1-0.3-0.3l0-1.7c0-0.1,0.1-0.3,0.3-0.3h0c0.1,0,0.3,0.1,0.3,0.3l0,1.7
				C20.4,28.2,20.3,28.3,20.1,28.3"/>
		</g>
	</g>
</g>
</svg>
